<svg width="50" height="50" viewBox="0 0 512 508" fill="none" xmlns="http://www.w3.org/2000/svg">
<path d="M314.404 105.404L269.684 15.9836C264.045 4.70843 247.955 4.70843 242.315 15.9836L197.595 105.404C196.965 106.664 197.88 108.145 199.288 108.145H312.71C314.119 108.145 315.034 106.664 314.404 105.404Z" fill="#837AFA"/>
<path d="M308.039 92.6773H241.52C235.711 92.6773 231.934 86.5647 234.532 81.3702L268.337 13.7741C261.823 4.77133 247.556 5.50384 242.315 15.9836L197.595 105.405C196.965 106.664 197.88 108.145 199.288 108.145H312.71C314.119 108.145 315.034 106.664 314.404 105.405L308.039 92.6773Z" fill="#6C61F6"/>
<path d="M178.14 144.306L133.391 233.784C132.761 235.044 133.676 236.525 135.084 236.525H376.915C378.324 236.525 379.239 235.044 378.609 233.784L333.86 144.306C333.539 143.664 332.884 143.259 332.166 143.259H179.834C179.116 143.26 178.46 143.665 178.14 144.306V144.306Z" fill="#6C61F6"/>
<path d="M368.436 213.443H202.198C191.644 213.443 184.78 202.335 189.5 192.895L214.323 143.26H179.833C179.115 143.26 178.46 143.665 178.139 144.307L133.39 233.786C132.76 235.045 133.675 236.527 135.083 236.527H376.915C378.322 236.527 379.238 235.046 378.608 233.786L368.436 213.443Z" fill="#837AFA"/>
<path d="M442.813 362.166L398.064 272.688C397.743 272.046 397.088 271.641 396.37 271.641H115.629C114.911 271.641 114.255 272.046 113.935 272.688L69.1857 362.166C68.5559 363.426 69.4711 364.907 70.8792 364.907H441.119C442.527 364.907 443.443 363.425 442.813 362.166V362.166Z" fill="#837AFA"/>
<path d="M432.406 341.357H148.871C136.438 341.357 128.353 328.272 133.914 317.153L156.674 271.641H115.629C114.911 271.641 114.256 272.046 113.935 272.688L69.1857 362.166C68.5559 363.426 69.4711 364.907 70.8792 364.907H441.119C442.528 364.907 443.443 363.426 442.813 362.166L432.406 341.357Z" fill="#6C61F6"/>
<path d="M460.575 400.022H51.4248C50.7072 400.022 50.0515 400.427 49.7312 401.069L8.78112 482.95C4.75528 490.999 10.6084 500.472 19.6092 500.472H492.39C501.39 500.472 507.244 491 503.218 482.95L462.268 401.068C461.947 400.427 461.293 400.022 460.575 400.022Z" fill="#6C61F6"/>
<path d="M498.221 472.957H92.4137C78.2185 472.957 68.9862 458.018 75.3363 445.322L97.9914 400.022H51.4248C50.7072 400.022 50.0525 400.427 49.7312 401.069L8.78112 482.95C4.75528 490.999 10.6084 500.472 19.6092 500.472H492.39C501.39 500.472 507.244 490.999 503.218 482.95L498.221 472.957Z" fill="#837AFA"/>
<path d="M199.289 115.63H312.711C315.985 115.63 318.968 113.966 320.689 111.181C322.41 108.395 322.563 104.985 321.099 102.057L276.378 12.6354C272.493 4.8671 264.685 0.0418701 256 0.0418701C247.314 0.0418701 239.506 4.8671 235.621 12.6354L190.901 102.055C189.436 104.984 189.589 108.395 191.31 111.181C193.032 113.966 196.014 115.63 199.289 115.63V115.63ZM249.011 19.3308C250.363 16.6263 252.977 15.0116 256.001 15.0116C259.024 15.0116 261.637 16.6263 262.99 19.3308L303.663 100.659H208.337L249.011 19.3308Z" fill="black"/>
<path d="M135.085 244.011H376.915C380.189 244.011 383.172 242.348 384.893 239.563C386.613 236.777 386.767 233.366 385.303 230.437L340.551 140.953C338.952 137.759 335.738 135.775 332.165 135.775H292.534C288.4 135.775 285.049 139.125 285.049 143.26C285.049 147.394 288.4 150.745 292.534 150.745H328.711L367.867 229.041H144.132L183.288 150.745H260.597C264.731 150.745 268.082 147.394 268.082 143.26C268.082 139.125 264.731 135.775 260.597 135.775H179.833C176.259 135.775 173.047 137.759 171.445 140.957L126.696 230.437C125.231 233.366 125.385 236.777 127.106 239.563C128.828 242.348 131.81 244.011 135.085 244.011V244.011Z" fill="black"/>
<path d="M62.9027 367.944C64.6242 370.729 67.6062 372.392 70.8806 372.392H117.222C121.355 372.392 124.707 369.041 124.707 364.907C124.707 360.772 121.355 357.422 117.222 357.422H79.9282L119.085 279.126H392.916L432.073 357.422H149.156C145.022 357.422 141.671 360.772 141.671 364.907C141.671 369.041 145.022 372.392 149.156 372.392H441.12C444.394 372.392 447.376 370.729 449.098 367.944C450.819 365.158 450.972 361.747 449.508 358.818L404.756 269.335C403.157 266.141 399.943 264.156 396.37 264.156H115.629C112.056 264.156 108.843 266.141 107.241 269.339L62.4915 358.818C61.0275 361.747 61.1812 365.158 62.9027 367.944V367.944Z" fill="black"/>
<path d="M509.913 479.602L468.963 397.72C467.364 394.524 464.151 392.538 460.575 392.538H400.787C396.654 392.538 393.302 395.888 393.302 400.023C393.302 404.157 396.654 407.508 400.787 407.508H457.121L496.524 486.298C497.565 488.379 496.73 490.137 496.322 490.796C495.915 491.455 494.716 492.988 492.391 492.988H19.6093C17.283 492.988 16.0854 491.455 15.6782 490.796C15.2711 490.137 14.4348 488.379 15.4757 486.298L54.8788 407.508H368.85C372.984 407.508 376.335 404.157 376.335 400.023C376.335 395.888 372.984 392.538 368.85 392.538H51.4248C47.8491 392.538 44.6346 394.524 43.0368 397.72L2.08678 479.602C-0.97203 485.72 -0.652676 492.847 2.94304 498.666C6.53876 504.484 12.7691 507.959 19.6093 507.959H492.39C499.23 507.959 505.46 504.485 509.056 498.666C512.653 492.846 512.972 485.719 509.913 479.602V479.602Z" fill="black"/>
<path d="M46.3091 239.756L47.5157 238.55V287.238C47.5157 291.373 50.8669 294.723 55.0005 294.723C59.1341 294.723 62.4854 291.373 62.4854 287.238V238.55L63.6919 239.756C65.1529 241.217 67.0691 241.948 68.9842 241.948C70.8993 241.948 72.8154 241.217 74.2765 239.755C77.1996 236.832 77.1996 232.093 74.2765 229.171L61.0632 215.959C59.4445 214.336 57.2919 213.443 55.0005 213.443C52.7092 213.443 50.5565 214.336 48.9438 215.952L35.7236 229.171C32.8005 232.094 32.8005 236.833 35.7236 239.755C38.6456 242.679 43.386 242.678 46.3091 239.756V239.756Z" fill="black"/>
<path d="M448.308 239.756L449.515 238.55V287.238C449.515 291.373 452.866 294.723 457 294.723C461.133 294.723 464.484 291.373 464.484 287.238V238.55L465.691 239.756C467.152 241.217 469.068 241.948 470.983 241.948C472.898 241.948 474.814 241.217 476.275 239.755C479.199 236.832 479.199 232.093 476.275 229.171L463.062 215.959C461.444 214.336 459.291 213.443 457 213.443C454.708 213.443 452.556 214.336 450.943 215.952L437.723 229.171C434.8 232.094 434.8 236.833 437.723 239.755C440.646 242.679 445.385 242.678 448.308 239.756V239.756Z" fill="black"/>
</svg>
