<svg width="24" height="24" viewBox="0 0 24 24" fill="none" xmlns="http://www.w3.org/2000/svg">
<path d="M12 15C13.6569 15 15 13.6569 15 12C15 10.3431 13.6569 9 12 9C10.3431 9 9 10.3431 9 12C9 13.6569 10.3431 15 12 15Z" stroke="white" stroke-width="2" stroke-miterlimit="10" stroke-linecap="round" stroke-linejoin="round"/>
<path d="M20.8185 7.7745L20.0685 6.4755C19.6545 5.75775 18.7373 5.5125 18.0195 5.9265L17.625 6.1545C16.125 7.02 14.25 5.93775 14.25 4.206V3.75C14.25 2.92125 13.5788 2.25 12.75 2.25H11.25C10.4213 2.25 9.75004 2.92125 9.75004 3.75V4.206C9.75004 5.93775 7.87504 7.02075 6.37504 6.1545L5.98054 5.9265C5.26279 5.5125 4.34554 5.75775 3.93154 6.4755L3.18154 7.7745C2.76754 8.49225 3.01279 9.4095 3.73054 9.8235L4.12504 10.0515C5.62504 10.9178 5.62504 13.0822 4.12504 13.9485L3.73054 14.1765C3.01279 14.5905 2.76754 15.5078 3.18154 16.2255L3.93154 17.5245C4.34554 18.2422 5.26279 18.4875 5.98054 18.0735L6.37504 17.8455C7.87504 16.9793 9.75004 18.0623 9.75004 19.794V20.25C9.75004 21.0788 10.4213 21.75 11.25 21.75H12.75C13.5788 21.75 14.25 21.0788 14.25 20.25V19.794C14.25 18.0623 16.125 16.9793 17.625 17.8455L18.0195 18.0735C18.7373 18.4875 19.6545 18.2422 20.0685 17.5245L20.8185 16.2255C21.2325 15.5078 20.9873 14.5905 20.2695 14.1765L19.875 13.9485C18.375 13.0822 18.375 10.9178 19.875 10.0515L20.2695 9.8235C20.9873 9.4095 21.2333 8.49225 20.8185 7.7745Z" stroke="white" stroke-width="2" stroke-miterlimit="10" stroke-linecap="round" stroke-linejoin="round"/>
</svg>
