<?xml version="1.0" encoding="UTF-8"?>
<svg width="60px" height="37px" viewBox="0 0 60 37" version="1.1" xmlns="http://www.w3.org/2000/svg" xmlns:xlink="http://www.w3.org/1999/xlink">
    <title>Team Icon</title>
    <g id="Dashboard" stroke="none" stroke-width="1" fill="none" fill-rule="evenodd">
        <g id="Artboard" transform="translate(-74.000000, -461.000000)" fill="#69656A" fill-rule="nonzero">
            <g id="Team-Icon" transform="translate(58.000000, 436.000000)">
                <g transform="translate(16.000000, 24.999384)">
                    <path d="M38.176,19.9686164 C38.112,20.0326164 37.984,20.1606164 37.856,20.2246164 C37.792,20.2886164 37.792,20.2886164 37.728,20.3526164 C36.768,21.1206164 34.656,22.4646164 31.84,22.9126164 C31.584,22.9766164 31.264,22.9766164 31.008,23.0406164 C30.752,23.0406164 30.496,23.0406164 30.304,23.0406164 C29.408,23.0406164 28.576,22.9126164 27.744,22.7206164 C25.12,22.0806164 23.136,20.4806164 22.56,20.0326164 C22.496,19.9686164 22.432,19.9686164 22.368,19.9046164 L22.24,20.0326164 C15.456,25.9206164 15.5838307,36.1606164 15.5838307,36.6086164 L15.5838307,36.9926164 L44.576,36.9926164 L44.576,36.6086164 C44.128,24.7046164 39.392,20.8006164 38.176,19.9686164 Z" id="Shape" fill-opacity="0.8"></path>
                    <path d="M5.42876975,21.6006164 C5.47998328,21.6515527 5.53119681,21.6515527 5.58241034,21.7024891 C6.04333212,22.0590434 7.63095159,23.3324516 9.73070637,23.8418149 C10.3964823,23.9946239 11.0622582,24.0964966 11.7792476,24.0964966 L11.7792476,24.0964966 L12.3425965,24.0964966 C12.5474506,24.0455602 12.8035182,24.0455602 13.0083724,23.9946239 C15.2617677,23.6380696 16.9518143,22.5684067 17.7200172,21.9571707 C17.7712308,21.9062344 17.7712308,21.9062344 17.8224443,21.8552981 C17.9248714,21.8043617 18.0272984,21.7024891 18.078512,21.6515527 C18.2184855,21.7468057 18.4167447,21.8926509 18.6546916,22.1007629 C14.9897024,26.6632214 14.1991,32.5384044 14.029493,35.2004305 L-1.0658141e-14,35.2006164 L0.000748222261,34.6794986 C0.0169901998,33.3051219 0.315295633,26.0281589 5.32634269,21.7024891 L5.32634269,21.7024891 Z" id="Combined-Shape" fill-opacity="0.6"></path>
                    <path d="M53.1835505,21.6006164 C54.1566076,22.2627887 59.6415053,25.6624591 60,35.1366164 L60,35.1366164 L58.3049037,35.1496801 L46.0058638,35.1500033 C45.5745828,28.9426848 43.9371414,25.1042544 42.4002659,22.8099752 C43.0757472,23.1895848 43.9054857,23.5652142 44.835745,23.7908786 C45.5015209,23.9436876 46.1672968,24.0455602 46.8842862,24.0455602 L46.8842862,24.0455602 L47.4476351,24.0455602 C47.6524892,23.9946239 47.9085568,23.9946239 48.113411,23.9436876 C50.3668063,23.5871333 52.0568529,22.5174703 52.8250558,21.9062344 C52.8762694,21.8552981 52.8762694,21.8552981 52.9274829,21.8043617 C53.02991,21.7534254 53.132337,21.6515527 53.1835505,21.6006164 Z" id="Combined-Shape" fill-opacity="0.6"></path>
                    <path d="M12.128,2.94461642 C6.88,2.94461642 2.656,7.23261642 2.656,12.4806164 C2.656,17.7286164 6.944,22.0166164 12.192,22.0166164 C15.584,22.0166164 18.592,20.2246164 20.256,17.4726164 C18.912,15.3606164 17.248,11.4566164 19.232,6.14461642 C17.504,4.16061642 14.944,2.94461642 12.128,2.94461642 Z" id="Path" fill-opacity="0.6"></path>
                    <path d="M19.488,10.8806164 C19.488,16.8966164 24.352,21.7606164 30.368,21.7606164 L30.368,21.7606164 C33.248,21.7606164 36,20.6086164 38.048,18.5606164 C40.096,16.5126164 41.248,13.7606164 41.248,10.8806164 C41.248,4.86461642 36.384,0.00061641684 30.368,0.00061641684 C24.352,-0.0633835832 19.488,4.86461642 19.488,10.8806164 Z" id="Path" fill-opacity="0.8"></path>
                    <path d="M46.752,22.5286164 C51.488,22.5286164 55.328,18.6886164 55.328,13.9526164 C55.328,9.21661642 51.488,5.37661642 46.816,5.37661642 C44.896,5.37661642 43.104,6.01661642 41.696,7.10461642 C42.144,8.32061642 42.4,9.66461642 42.4,11.0086164 C42.4,13.8886164 41.376,16.5126164 39.584,18.4966164 C41.056,20.9286164 43.68,22.5286164 46.752,22.5286164 Z" id="Path" fill-opacity="0.6"></path>
                </g>
            </g>
        </g>
    </g>
</svg>