<svg width="24" height="24" viewBox="0 0 24 24" fill="none" xmlns="http://www.w3.org/2000/svg">
<path d="M13.2124 11.2884H22.8314C23.2924 11.2884 23.6661 10.9148 23.6661 10.4537C23.6661 4.6895 18.9766 0 13.2124 0C12.7514 0 12.3777 0.373624 12.3777 0.834728V10.4537C12.3777 10.9147 12.7514 11.2884 13.2124 11.2884ZM14.0471 1.70886C18.226 2.10452 21.5616 5.43998 21.9573 9.61897H14.0471V1.70886Z" fill="white"/>
<path d="M11.2885 13.2005V3.92738C11.2885 3.46628 10.9148 3.09265 10.4538 3.09265C4.6895 3.09265 0 7.78216 0 13.5463C0 19.3105 4.6895 24 10.4538 24C13.2459 24 15.871 22.9126 17.8456 20.9381C18.0101 20.7738 18.0977 20.5474 18.0888 20.315C18.0806 20.1031 17.9915 19.9024 17.8418 19.7541L11.2885 13.2005ZM10.4538 22.3306C5.61015 22.3306 1.66946 18.39 1.66946 13.5463C1.66946 8.98416 5.1653 5.2231 9.61908 4.80151V13.5463C9.61908 13.7677 9.707 13.98 9.8636 14.1367L16.0474 20.3206C14.4764 21.6222 12.5194 22.3306 10.4538 22.3306Z" fill="white"/>
<path d="M23.1653 12.1599H13.5463C13.2086 12.1599 12.9043 12.3633 12.7751 12.6752C12.6459 12.9872 12.7174 13.3461 12.9561 13.585L19.7563 20.3852C19.7641 20.3929 19.7721 20.4007 19.7802 20.4081L19.7816 20.4095C19.9418 20.5574 20.145 20.631 20.3479 20.631C20.5619 20.631 20.7756 20.5491 20.9382 20.3865C22.9126 18.4122 24 15.7871 24 12.9948C24 12.5335 23.6262 12.1599 23.1653 12.1599ZM20.3204 18.5883L15.5615 13.8294H22.2917C22.1272 15.5847 21.4454 17.2308 20.3204 18.5883Z" fill="white"/>
</svg>
