<?xml version="1.0" encoding="UTF-8"?>
<svg width="49px" height="49px" viewBox="0 0 49 49" version="1.1" xmlns="http://www.w3.org/2000/svg" xmlns:xlink="http://www.w3.org/1999/xlink">
    <title>Shape</title>
    <g id="Dashboard" stroke="none" stroke-width="1" fill="none" fill-rule="evenodd">
        <g id="Artboard" transform="translate(-77.000000, -901.000000)" fill="#1F1F26" fill-rule="nonzero">
            <g id="Group-2">
                <path d="M123.721988,929.311562 L121.896064,927.350382 C121.898065,927.333176 121.897664,927.316369 121.895664,927.290759 C121.934879,926.853385 121.96089,926.41281 121.978096,925.971835 C121.982098,925.844584 121.976896,925.70853 121.979297,925.581279 C121.982898,925.243145 121.978096,924.916215 121.96289,924.589685 C121.956488,924.446829 121.948885,924.313976 121.939681,924.171919 C121.932078,923.953833 121.920874,923.738547 121.904467,923.510857 L123.735593,921.563283 C124.60914,920.632913 126.194969,919.397623 125.709576,918.221555 L123.704781,913.356822 C123.219389,912.179555 121.226198,912.426453 119.951693,912.382035 L117.278232,912.285597 C117.076152,912.043901 116.858466,911.814209 116.649183,911.580917 C116.64118,911.572113 116.631576,911.558508 116.621572,911.546103 C116.547142,911.468072 116.484318,911.383238 116.409088,911.306408 C116.295843,911.183159 116.165391,911.065512 116.048545,910.945464 C115.879278,910.774997 115.710811,910.601728 115.537142,910.436862 C115.252229,910.162753 114.95171,909.904251 114.655592,909.647749 C114.643588,909.635344 114.62438,909.62494 114.613976,909.616536 C114.597969,909.60093 114.583564,909.583323 114.567557,909.567317 L114.481123,906.889053 C114.441908,905.620949 114.691206,903.624155 113.521943,903.137562 L108.655613,901.112357 C107.484748,900.624964 106.241055,902.211594 105.313487,903.077138 L103.35391,904.906665 C102.914536,904.862647 102.478363,904.839838 102.04179,904.823032 C101.919741,904.81823 101.796893,904.820631 101.666441,904.821431 C101.385129,904.81903 101.101417,904.810627 100.812102,904.821831 C100.446757,904.833436 100.081412,904.856245 99.7172677,904.887857 C99.6704492,904.890258 99.6236306,904.890258 99.586816,904.89346 C99.5608057,904.898662 99.5411979,904.89466 99.5147874,904.899862 L97.5656144,903.064733 C96.636846,902.195988 95.3999555,900.605356 94.2238891,901.089948 L89.3591597,903.094745 C88.1818928,903.579738 88.4307915,905.577731 88.383973,906.848636 L88.2891353,909.5261 C88.2599238,909.548109 88.2307122,909.578521 88.2035014,909.605332 C87.8837746,909.871838 87.5700502,910.147147 87.2651292,910.433661 C87.1526846,910.544105 87.0442416,910.655349 86.934198,910.766993 C86.7177121,910.977877 86.5004259,911.195564 86.2927436,911.419252 C86.1863014,911.535299 86.0882625,911.652945 85.9846214,911.771392 C85.8437655,911.924253 85.7061109,912.075113 85.5712574,912.236377 L82.8913946,912.31841 C81.6232917,912.358025 79.6264997,912.108726 79.1399068,913.278391 L77.1139033,918.144325 C76.6269101,919.31559 78.2111384,920.554882 79.0766817,921.482451 L80.9066074,923.44243 C80.8769957,923.74575 80.8637905,924.04747 80.8469838,924.354392 C80.8473839,924.382803 80.8421819,924.412815 80.8429822,924.441226 C80.8181724,924.961433 80.8057674,925.48084 80.8237746,925.998645 C80.8321779,926.225936 80.8489846,926.449224 80.8633903,926.676114 C80.8765955,926.859387 80.8805971,927.045861 80.8978039,927.228734 C80.8966035,927.248742 80.8982041,927.267149 80.8998047,927.280755 L79.0662776,929.235131 C78.1971329,930.1623 76.6053015,931.39559 77.0898937,932.571257 L79.0946888,937.43599 C79.5800813,938.614058 81.5792742,938.36876 82.8501783,938.415179 L85.5260395,938.506015 C85.5440466,938.532425 85.5656552,938.548032 85.5848628,938.575242 C85.8561704,938.900972 86.1410834,939.219098 86.4380012,939.539225 C86.5424426,939.65167 86.6528864,939.748108 86.7589285,939.858552 C86.977015,940.07984 87.1967021,940.298727 87.4239922,940.512012 C87.5356365,940.60885 87.6536833,940.710091 87.7665281,940.814532 C87.9245908,940.954188 88.0782517,941.096644 88.2367146,941.223895 L88.3183469,943.903359 C88.3583628,945.171463 88.1102644,947.173058 89.2803284,947.660052 L94.1462583,949.685657 C95.317923,950.173451 96.5564141,948.588021 97.483982,947.722477 L99.44556,945.896951 C99.4671685,945.897352 99.4879768,945.894551 99.5095854,945.894951 C99.7620855,945.922962 100.012585,945.932566 100.263084,945.945371 C100.338314,945.951773 100.411143,945.952173 100.482371,945.959776 C100.600018,945.963378 100.712863,945.972582 100.826508,945.976583 C100.960961,945.979384 101.095014,945.975383 101.229467,945.975783 C101.556397,945.983386 101.883727,945.976583 102.207855,945.961777 C102.349112,945.956975 102.493569,945.946171 102.633224,945.938168 C102.853712,945.928564 103.066196,945.91776 103.283082,945.904955 L105.235456,947.733681 C106.165425,948.607228 107.395913,950.195059 108.571579,949.709666 L113.436709,947.70487 C114.614376,947.219077 114.371079,945.224284 114.415897,943.949378 L114.507934,941.277916 C114.737225,941.08664 114.958112,940.887361 115.171397,940.692884 C115.201409,940.65807 115.235822,940.63366 115.268635,940.606049 C115.343065,940.535621 115.422696,940.476398 115.486722,940.408771 C115.616373,940.293925 115.728018,940.167075 115.846064,940.052629 C116.014931,939.881761 116.194202,939.710894 116.365871,939.532022 C116.615169,939.264316 116.866069,938.984205 117.108565,938.692489 C117.136176,938.666479 117.157785,938.64447 117.181394,938.610456 C117.201802,938.592449 117.214207,938.580444 117.225812,938.566439 L119.903273,938.480405 C121.171376,938.440789 123.17297,938.688887 123.659963,937.518823 L125.685567,932.652889 C126.174961,931.482424 124.587131,930.23913 123.721988,929.311562 Z M112.105381,925.398807 C112.105381,931.310356 107.31268,936.10306 101.401136,936.10306 C95.489591,936.10306 90.6968903,931.310356 90.6968903,925.398807 C90.6968903,919.487258 95.489591,914.694554 101.401136,914.694554 C107.31268,914.694554 112.105381,919.487258 112.105381,925.398807 Z" id="Shape"></path>
            </g>
        </g>
    </g>
</svg>