<?xml version="1.0" encoding="UTF-8"?>
<svg width="198px" height="45px" viewBox="0 0 198 45" version="1.1" xmlns="http://www.w3.org/2000/svg" xmlns:xlink="http://www.w3.org/1999/xlink">
    <title>Logo / Pink Logo </title>
    <defs>
        <linearGradient x1="13.4331896%" y1="1.81247423%" x2="108.281027%" y2="125.910584%" id="linearGradient-1">
            <stop stop-color="#E994F7" offset="0%"></stop>
            <stop stop-color="#9163F9" offset="40.0224334%"></stop>
            <stop stop-color="#DA4EF2" offset="100%"></stop>
        </linearGradient>
        <path d="M15.6616142,4.0056105 C15.724693,4.0056105 15.7873601,4.01576821 15.8472092,4.03569355 C19.633979,5.29641025 22.5175472,5.9267686 24.4979138,5.9267686 C25.6113608,5.9267686 27.0103252,5.72750159 28.694807,5.32896758 C29.0578629,5.23923704 29.3890868,5.15621719 29.6908053,5.07887942 C30.6873865,4.81522525 31.7736816,4.48948571 32.9483791,4.10204872 C33.2565549,4.00034207 33.5887985,4.16778113 33.6904469,4.47597607 C33.7230457,4.57481475 33.7288083,4.6805383 33.7071453,4.78233458 L32.6419607,9.78629655 C31.5589055,15.336376 31.0173779,19.704113 31.0173779,22.8895077 C31.0173779,26.9988978 31.9186353,32.0839615 33.7211501,38.1446986 C33.8136806,38.455732 33.6365234,38.7828713 33.3254828,38.8753774 C33.2943446,38.8846382 33.262492,38.8913006 33.2302525,38.8952962 L28.7444845,39.4512355 C28.2499867,39.512498 27.7935768,39.177293 27.7040973,38.6871149 C26.4515102,31.8253112 25.8252166,26.5594421 25.8252166,22.8895077 C25.8252166,20.1171541 26.1826199,16.3133833 26.8974266,11.4781952 C26.0276437,11.5970461 25.2280402,11.6567297 24.4979138,11.6567297 C22.5458802,11.6567297 19.7087834,11.2301177 15.9866235,10.3768939 C15.4526306,10.2545074 15.074071,9.77935273 15.074071,9.23151441 L15.074071,4.59315837 C15.0740664,4.26866464 15.3371205,4.0056105 15.6616142,4.0056105 Z" id="path-2"></path>
        <linearGradient x1="61.1093176%" y1="41.2558438%" x2="26.2235285%" y2="78.1488844%" id="linearGradient-4">
            <stop stop-color="#EC82E3" offset="0%"></stop>
            <stop stop-color="#F5B4F6" offset="100%"></stop>
        </linearGradient>
        <path d="M18.411023,16.1817119 C24.936054,16.1817119 30.2256367,21.4712947 30.2256367,27.9963257 C30.2256367,34.5213567 24.936054,39.8109395 18.411023,39.8109395 C15.8952317,39.8109395 13.5630978,39.0246083 11.6469884,37.6843129 L8.86321873,39.7066437 C8.44318851,40.0118135 7.85529773,39.9187008 7.55012792,39.4986706 L6.66122439,38.2751998 C6.35605457,37.8551696 6.44916732,37.2672788 6.86919754,36.962109 L9.13610594,35.3156454 C7.5457188,33.3030834 6.59640919,30.7605661 6.59640919,27.9963257 C6.59640919,21.4712947 11.8859919,16.1817119 18.411023,16.1817119 Z M18.411023,23.9089169 C16.1536094,23.9089169 14.3236142,25.7389122 14.3236142,27.9963257 C14.3236142,30.2537392 16.1536094,32.0837344 18.411023,32.0837344 C20.6684365,32.0837344 22.4984317,30.2537392 22.4984317,27.9963257 C22.4984317,25.7389122 20.6684365,23.9089169 18.411023,23.9089169 Z" id="path-5"></path>
        <linearGradient x1="24.1657374%" y1="89.6441221%" x2="84.5656386%" y2="35.9780573%" id="linearGradient-7">
            <stop stop-color="#ED89E6" offset="0%"></stop>
            <stop stop-color="#F5B4F6" offset="100%"></stop>
        </linearGradient>
    </defs>
    <g id="Logo" stroke="none" stroke-width="1" fill="none" fill-rule="evenodd">
        <g id="Admenty-Logo-Pink">
            <path d="M56.3981492,35.4347826 C58.0152315,35.4347826 59.2814375,35.2438229 60.1967671,34.8619035 C61.1273522,34.4946733 61.8138494,33.9217942 62.2562587,33.1432661 L62.3477917,33.1432661 L62.3477917,35.1703769 L66.4707203,34.519736 L66.4707203,19.548404 C66.4402093,16.7574545 66.1921761,14.7891006 64.4072833,13.6433423 C63.4685449,13.0561986 61.7425778,12.4187185 57.5651945,12.6617776 C56.5513501,12.7207676 55.3036433,12.7207676 53.787832,13.2200422 C53.726541,13.2402301 53.4776781,13.320244 53.0412433,13.4600839 C52.7786743,13.5442057 52.634023,13.8252586 52.718153,14.087825 C52.7275196,14.1170579 52.7395625,14.1453646 52.7541287,14.1723854 L54.4823854,17.3783724 C54.5863585,17.571339 54.8040555,17.6738765 55.0190535,17.6311876 C55.9514111,17.4460634 56.7696138,17.3535012 57.4736615,17.3535012 C60.7535926,17.2947444 62.3783027,17.2715767 62.3477917,19.2839983 L62.3477917,21.6856838 L55.7345352,21.6856838 C53.2021233,21.7150622 51.2799311,22.3760766 49.9679587,23.6687269 C48.6559862,24.9319988 48,26.5257779 48,28.4500641 C48,30.4624857 48.7551469,32.1150216 50.2654408,33.4076719 C51.6994572,34.7297006 53.7436933,35.4054042 56.3981492,35.4347826 Z M56.8606067,31.3740954 C55.4923023,31.3740954 54.5121228,31.0492857 53.920068,30.3996663 C53.3016997,29.8134244 52.9925156,29.1004275 52.9925156,28.2606756 C52.9662021,26.3435061 54.1503116,25.3532326 56.5448441,25.2898551 L61.4786338,25.2898551 L61.4786338,27.0723474 C61.4786338,28.9261393 61.1562928,30.1144675 60.511611,30.6373319 C59.8011453,31.1601963 58.5841438,31.4057842 56.8606067,31.3740954 Z M76.0134246,35.942029 C78.5427485,35.8831378 80.5921103,34.9924086 82.16151,33.2698413 L82.16151,35.6770186 L86.9382753,35.0404742 L86.9382753,5.49921824 C86.9382753,5.22350762 86.7147677,5 86.439057,5 L82.6607283,5 C82.3850176,5 82.16151,5.22350762 82.16151,5.49921824 L82.16151,15.1828847 L82.16151,15.1828847 C81.2777704,14.3731309 80.3559385,13.710605 79.3960144,13.1953071 C78.3599058,12.7094548 77.2323759,12.4665286 76.0134246,12.4665286 C73.1184154,12.5401426 71.0004876,13.5412928 69.6596412,15.4699793 C69.0044549,16.1913964 68.5702035,17.1410168 68.356887,18.3188406 C68.0978599,19.4819416 67.9683463,21.4400736 67.9683463,24.1932367 C67.9683463,26.9022314 68.0978599,28.8456407 68.356887,30.0234645 C68.5702035,31.2601794 69.0044549,32.2392455 69.6596412,32.9606625 C70.375775,33.8440304 71.2671331,34.5507246 72.3337155,35.0807453 C73.3545872,35.6254888 74.5811569,35.9125834 76.0134246,35.942029 Z M76.4742802,30.3623188 C75.5178675,30.3623188 74.7876335,30.1788189 74.2835781,29.8118189 C73.7278248,29.4317118 73.3207032,28.9467476 73.0622133,28.3569262 C72.8166479,27.7408905 72.6550917,27.046212 72.5775447,26.2728907 C72.4999977,25.5388908 72.4612242,24.7852301 72.4612242,24.0119088 C72.4612242,23.199266 72.4999977,22.4062839 72.5775447,21.6329626 C72.6550917,20.9120698 72.8166479,20.2436056 73.0622133,19.6275699 C73.3207032,19.0115343 73.7278248,18.52657 74.2835781,18.1726772 C74.7876335,17.8449987 75.5178675,17.6811594 76.4742802,17.6811594 C77.4306929,17.6811594 78.1867759,17.871213 78.7425293,18.2513201 C79.2982826,18.6314272 79.6795552,19.1294986 79.8863472,19.7455342 C80.1448371,20.3615699 80.3193178,21.0300341 80.4097892,21.7509269 C80.4356382,22.4718196 80.4485627,23.2254803 80.4485627,24.0119088 C80.4485627,24.7328016 80.4356382,25.4668015 80.4097892,26.2139085 C80.3193178,26.9741228 80.1448371,27.6622477 79.8863472,28.2782833 C79.6795552,28.894319 79.2982826,29.3923904 78.7425293,29.7724975 C78.1867759,30.1657117 77.4306929,30.3623188 76.4742802,30.3623188 Z M94.3301682,34.7825764 L94.3301682,21.628988 C94.3301682,20.2532935 94.6565423,19.1556873 95.3092905,18.3361694 C95.4267926,18.1886468 95.5548705,18.0501355 95.6935243,17.9206354 C96.5569831,17.0568424 97.0243558,16.6249459 98.3877119,16.6249459 C99.751068,16.6249459 100.226015,17.0568424 101.104622,17.9206354 C101.968081,18.7695354 102.39981,20.0056529 102.39981,21.628988 L102.39981,35.4347826 L107.794869,34.7825764 L107.794869,21.628988 C107.794869,20.0056529 108.241747,18.7695354 109.135502,17.9206354 C110.014109,17.0568424 111.135091,16.6249459 112.498447,16.6249459 C113.861803,16.6249459 114.329176,17.0568424 115.192635,17.9206354 C116.056094,18.7695354 116.487823,20.0056529 116.487823,21.628988 L116.487823,35.4347826 L121.882881,34.7825764 L121.882881,20.0205459 C121.822288,17.3695951 120.989126,15.3590424 119.383395,13.9888881 C117.762516,12.6336267 115.975005,11.955996 114.020861,11.955996 C110.915439,11.92621 108.438676,12.9389328 106.590571,14.9941644 C105.772557,14.1005854 104.871227,13.3633828 103.886581,12.7825565 C102.886787,12.2613021 101.568876,11.985782 99.9328488,11.955996 C97.3879175,11.955996 95.3353092,12.8719144 93.7750239,14.7037512 L93.6841335,14.7037512 L93.6841335,12.166667 C93.6841335,11.8909564 93.4606259,11.6674488 93.1849153,11.6674488 C93.1621952,11.6674488 93.1395016,11.6689998 93.1169928,11.6720911 L89.3664057,12.1871772 C89.119262,12.2211187 88.9351099,12.4322897 88.9351099,12.6817532 L88.9351099,35.4347826 L88.9351099,35.4347826 L94.3301682,34.7825764 Z M137.251429,34.6727748 C140.360821,33.8543342 142.73387,31.8809467 144.370539,28.7524635 L140.354945,26.7981614 C139.302717,28.6786735 137.860519,29.8693033 136.028352,30.3700507 C134.455862,30.7998261 133.058765,30.6612031 131.837061,29.9541819 C131.054914,29.5463696 130.250761,28.4705321 129.424602,26.7266692 C129.306471,26.4775 129.412783,26.1797746 129.661985,26.0617144 C129.688419,26.0491912 129.715903,26.0390152 129.744118,26.0313036 L142.701429,22.4899562 C142.965525,22.4177765 143.122212,22.1463589 143.052651,21.8815612 L142.180922,18.5631496 L142.180922,18.5631496 C141.359627,15.5544446 139.821186,13.4356909 137.5656,12.2068885 C135.346599,10.9996305 132.949273,10.7322039 130.373622,11.4046087 C129.30606,11.6963828 128.276257,12.1907533 127.284213,12.8877203 C126.277742,13.5886302 125.445184,14.5101246 124.78654,15.6522037 C124.138458,16.7756248 123.734109,18.1794058 123.573494,19.8635467 C123.405149,21.5182574 123.618625,23.4786737 124.213923,25.7447956 C124.832415,28.0992079 125.659536,29.9234529 126.695286,31.2175304 C127.688792,32.5862398 128.773722,33.5672163 129.950075,34.1604598 C130.548812,34.4384236 131.166221,34.6403123 131.802301,34.7661259 C132.421125,34.9439706 133.036979,35.0516545 133.649866,35.0891776 C134.867908,35.1347938 136.068415,34.9959433 137.251429,34.6727748 Z M137.087741,19.9551611 L128.766725,22.2293682 C128.500792,22.3019581 128.226316,22.1453111 128.15364,21.879402 C128.144516,21.8460167 128.138888,21.8117729 128.136849,21.7772234 C128.027581,19.9261158 128.157124,18.6557102 128.525478,17.9660064 C129.163,16.8612433 130.159807,16.1235457 131.515899,15.7529138 C132.871991,15.3822818 134.096867,15.5127739 135.190526,16.1443899 C135.866653,16.5500711 136.605221,17.5878276 137.406229,19.2576593 C137.525511,19.5062505 137.420652,19.8044589 137.172048,19.923713 C137.144949,19.936712 137.116732,19.9472374 137.087741,19.9551611 Z M150.776589,34.7866345 L150.776589,21.7145162 C150.776589,20.1012378 151.226077,18.8727782 152.125054,18.0291372 C153.008793,17.1706955 153.482188,16.7414746 154.853508,16.7414746 C156.224828,16.7414746 156.690604,17.1706955 157.559107,18.0291372 C158.442847,18.8727782 158.884716,20.1012378 158.884716,21.7145162 L158.884716,35.4347826 L164.315617,34.7866345 L164.315617,20.1160386 C164.239433,17.4815106 163.393785,15.4834135 161.778675,14.1217474 C160.148328,12.774882 158.350374,12.1014493 156.384816,12.1014493 C153.840255,12.1014493 151.783275,13.0116935 150.213875,14.8321819 L150.122453,14.8321819 L150.122453,12.8892815 C150.122453,12.6135709 149.898946,12.3900633 149.623235,12.3900633 L145.844906,12.3900633 C145.569196,12.3900633 145.345688,12.6135709 145.345688,12.8892815 L145.345688,35.4347826 L145.345688,35.4347826 L150.776589,34.7866345 Z M176.795834,35.942029 L176.153994,31.5139255 L174.423664,31.5139255 C173.29969,31.5438957 172.752491,30.9669685 172.78207,29.7831439 L172.78207,16.1841457 L175.357648,16.1841457 C175.633358,16.1841457 175.856866,15.9606381 175.856866,15.6849275 C175.856866,15.6095777 175.839809,15.5352053 175.806974,15.4673859 L174.560038,12.8918708 C174.476639,12.7196111 174.302098,12.6101942 174.110711,12.6101942 L172.78207,12.6101942 L172.78207,12.6101942 L172.78207,5.49921824 C172.78207,5.22350762 172.558562,5 172.282851,5 L168.003053,5 C167.727342,5 167.503834,5.22350762 167.503834,5.49921824 L167.503834,12.6101942 L167.503834,12.6101942 L164.14378,12.6101942 C163.868069,12.6101942 163.644562,12.8337018 163.644562,13.1094124 C163.644562,13.1903736 163.664253,13.27012 163.701936,13.3417764 L165.056391,15.9172915 C165.14269,16.081391 165.312826,16.1841457 165.498234,16.1841457 L167.503834,16.1841457 L167.503834,16.1841457 L167.503834,30.1877422 C167.503834,32.0309122 168.036243,33.4395136 169.101062,34.4135466 C170.136301,35.4325348 171.467324,35.942029 173.09413,35.942029 L176.795834,35.942029 Z M181.952528,40 C183.377753,40 184.656048,39.6808546 185.787412,39.0425638 C186.904084,38.374585 187.77832,37.1722232 188.410121,35.4354784 L197.960976,13.3057317 C198.070228,13.0525906 197.953582,12.7588132 197.700441,12.6495614 C197.637976,12.6226022 197.570659,12.6086957 197.502623,12.6086957 L193.054298,12.6086957 C192.853521,12.6086957 192.672281,12.7289768 192.594286,12.9139856 L186.748341,26.7809823 L186.748341,26.7809823 L181.930072,12.9437488 C181.860215,12.7431312 181.671051,12.6086957 181.458619,12.6086957 L177.010126,12.6086957 C176.734416,12.6086957 176.510908,12.8322033 176.510908,13.1079139 C176.510908,13.1662686 176.521139,13.2241715 176.541137,13.2789926 L183.420405,32.1375773 L183.420405,32.1375773 C182.922406,33.9007548 182.501987,34.8961474 182.159149,35.123755 C181.644893,35.4503224 181.086557,35.6136061 180.484142,35.6136061 L179.139729,40 L181.952528,40 Z" id="Admenty-Light-Font-Copy" fill="#2F2F30" fill-rule="nonzero"></path>
            <g id="Pink-Icon">
                <rect id="Pink-Gradient-BG" fill="url(#linearGradient-1)" x="0.634655532" y="0.114906054" width="39.04" height="44.16" rx="5.12"></rect>
                <mask id="mask-3" fill="white">
                    <use xlink:href="#path-2"></use>
                </mask>
                <use id="Combined-Shape" fill="#F5B4F6" xlink:href="#path-2"></use>
                <circle id="Top-Circle" fill="url(#linearGradient-4)" mask="url(#mask-3)" cx="30.856952" cy="6.47148225" r="10.3114823"></circle>
                <mask id="mask-6" fill="white">
                    <use xlink:href="#path-5"></use>
                </mask>
                <use id="Combined-Shape" fill="#F5B4F6" xlink:href="#path-5"></use>
                <circle id="Bottom-Circle" fill="url(#linearGradient-7)" mask="url(#mask-6)" cx="9.03148225" cy="34.3696033" r="10.3114823"></circle>
            </g>
        </g>
    </g>
</svg>