<?xml version="1.0" encoding="UTF-8"?>
<svg width="197px" height="44px" viewBox="0 0 197 44" version="1.1" xmlns="http://www.w3.org/2000/svg" xmlns:xlink="http://www.w3.org/1999/xlink">
    <title>Logo / Grey Logo</title>
    <defs>
        <linearGradient x1="6.25763565%" y1="-3.90074497%" x2="89.0779248%" y2="102.645912%" id="linearGradient-1">
            <stop stop-color="#CFCDCF" offset="0%"></stop>
            <stop stop-color="#ACABAD" offset="35.7007064%"></stop>
            <stop stop-color="#534E54" offset="100%"></stop>
            <stop stop-color="#534D54" offset="100%"></stop>
        </linearGradient>
        <path d="M15.3932196,3.93696597 C15.4552174,3.93696597 15.5168106,3.9469496 15.575634,3.96653348 C19.2975096,5.20564515 22.1316619,5.82520099 24.0780907,5.82520099 C25.1716793,5.82520099 26.5454939,5.62962691 28.1995346,5.23847875 C28.5462844,5.15280863 28.86343,5.07337562 29.1532271,4.99920934 C30.1397203,4.73923173 31.2173953,4.41643343 32.3837396,4.03175151 C32.6866341,3.93178782 33.013184,4.09635746 33.1130905,4.39927083 C33.1451306,4.49641571 33.1507945,4.60032746 33.1295027,4.70037925 L32.0800219,9.63166009 C31.0172273,15.0804138 30.4858301,19.3689431 30.4858301,22.497248 C30.4858301,26.5362151 31.3716425,31.5341355 33.1432675,37.4910093 C33.2342123,37.7967124 33.0600911,38.1182455 32.7543808,38.2091663 C32.7237762,38.2182684 32.6924695,38.2248166 32.6607825,38.2287437 L28.2518875,38.7751559 C27.7658639,38.8353685 27.3172756,38.505908 27.2293295,38.0241301 C25.9982081,31.2799178 25.3826474,26.1042904 25.3826474,22.497248 C25.3826474,19.7725021 25.7339007,16.0340871 26.4364073,11.2820028 C25.5813797,11.3983233 24.7956018,11.4569672 24.0780907,11.4569672 C22.1595092,11.4569672 19.3710321,11.0376661 15.7126591,10.1990641 C15.1878174,10.0787749 14.8157452,9.61176302 14.8157452,9.07331306 L14.8157452,4.51444497 C14.8157406,4.19551212 15.0742868,3.93696597 15.3932196,3.93696597 Z" id="path-2"></path>
        <linearGradient x1="50%" y1="50%" x2="26.2235285%" y2="78.1488844%" id="linearGradient-4">
            <stop stop-color="#C9C0C8" offset="0%"></stop>
            <stop stop-color="#E9E3E9" offset="100%"></stop>
        </linearGradient>
        <path d="M18.0955115,15.9044043 C24.5087224,15.9044043 29.7076571,21.103339 29.7076571,27.5165499 C29.7076571,33.9297609 24.5087224,39.1286955 18.0955115,39.1286955 C15.6227253,39.1286955 13.3304651,38.3557722 11.4471456,37.0383403 L8.71132889,39.0261871 C8.29849677,39.3261272 7.72068074,39.2346102 7.42074065,38.821778 L6.54707034,37.619274 C6.24713025,37.2064419 6.33864732,36.6286259 6.75147944,36.3286858 L8.97965429,34.7105829 C7.41645272,32.7324874 6.48336588,30.2334857 6.48336588,27.5165499 C6.48336588,21.103339 11.6823006,15.9044043 18.0955115,15.9044043 Z M18.0955115,23.4991875 C15.8767835,23.4991875 14.078149,25.2978219 14.078149,27.5165499 C14.078149,29.7352779 15.8767835,31.5339124 18.0955115,31.5339124 C20.3142395,31.5339124 22.1128739,29.7352779 22.1128739,27.5165499 C22.1128739,25.2978219 20.3142395,23.4991875 18.0955115,23.4991875 Z" id="path-5"></path>
        <linearGradient x1="24.2775777%" y1="91.5281646%" x2="84.5656386%" y2="35.9780573%" id="linearGradient-7">
            <stop stop-color="#C9C1C9" offset="0%"></stop>
            <stop stop-color="#E9E3E9" offset="100%"></stop>
        </linearGradient>
    </defs>
    <g id="Landing-Page" stroke="none" stroke-width="1" fill="none" fill-rule="evenodd">
        <g id="Desktop-HD" transform="translate(-65.000000, -40.000000)">
            <g id="Group" transform="translate(64.000000, 40.000000)">
                <g id="Admenty-Logo-Grey" transform="translate(1.000000, 0.000000)">
                    <path d="M55.3981492,35.4347826 C57.0152315,35.4347826 58.2814375,35.2438229 59.1967671,34.8619035 C60.1273522,34.4946733 60.8138494,33.9217942 61.2562587,33.1432661 L61.3477917,33.1432661 L61.3477917,35.1703769 L65.4707203,34.519736 L65.4707203,19.548404 C65.4402093,16.7574545 65.1921761,14.7891006 63.4072833,13.6433423 C62.4685449,13.0561986 60.7425778,12.4187185 56.5651945,12.6617776 C55.5513501,12.7207676 54.3036433,12.7207676 52.787832,13.2200422 C52.7275029,13.2399133 52.4854437,13.3177471 52.0616542,13.4535437 C51.7990562,13.5376351 51.6544003,13.8187094 51.7385407,14.0812917 C51.7496535,14.1159723 51.7645275,14.1493329 51.7828972,14.180778 L53.477894,17.0822616 C53.5853746,17.2660989 53.7976189,17.361574 54.0064657,17.3199657 C54.9440485,17.1331724 55.7664471,17.0397757 56.4736615,17.0397757 C59.7535926,16.9810189 61.3783027,17.2715767 61.3477917,19.2839983 L61.3477917,21.6856838 L54.7345352,21.6856838 C52.2021233,21.7150622 50.2799311,22.3760766 48.9679587,23.6687269 C47.6559862,24.9319988 47,26.5257779 47,28.4500641 C47,30.4624857 47.7551469,32.1150216 49.2654408,33.4076719 C50.6994572,34.7297006 52.7436933,35.4054042 55.3981492,35.4347826 Z M55.8606067,31.3740954 C54.4923023,31.3740954 53.5121228,31.0492857 52.920068,30.3996663 C52.3016997,29.8134244 51.9925156,29.1004275 51.9925156,28.2606756 C51.9662021,26.3435061 53.1503116,25.3532326 55.5448441,25.2898551 L60.4786338,25.2898551 L60.4786338,27.0723474 C60.4786338,28.9261393 60.1562928,30.1144675 59.511611,30.6373319 C58.8011453,31.1601963 57.5841438,31.4057842 55.8606067,31.3740954 Z M75.0134246,35.942029 C77.5427485,35.8831378 79.5921103,34.9924086 81.16151,33.2698413 L81.16151,35.6770186 L85.9382753,35.0404742 L85.9382753,5.49920866 C85.9382753,5.22350333 85.7147719,5 85.4390666,5 L81.6607187,5 C81.3850134,5 81.16151,5.22350333 81.16151,5.49920866 L81.16151,15.1828847 L81.16151,15.1828847 C80.2777704,14.3731309 79.3559385,13.710605 78.3960144,13.1953071 C77.3599058,12.7094548 76.2323759,12.4665286 75.0134246,12.4665286 C72.1184154,12.5401426 70.0004876,13.5412928 68.6596412,15.4699793 C68.0044549,16.1913964 67.5702035,17.1410168 67.356887,18.3188406 C67.0978599,19.4819416 66.9683463,21.4400736 66.9683463,24.1932367 C66.9683463,26.9022314 67.0978599,28.8456407 67.356887,30.0234645 C67.5702035,31.2601794 68.0044549,32.2392455 68.6596412,32.9606625 C69.375775,33.8440304 70.2671331,34.5507246 71.3337155,35.0807453 C72.3545872,35.6254888 73.5811569,35.9125834 75.0134246,35.942029 Z M75.4742802,30.3623188 C74.5178675,30.3623188 73.7876335,30.1788189 73.2835781,29.8118189 C72.7278248,29.4317118 72.3207032,28.9467476 72.0622133,28.3569262 C71.8166479,27.7408905 71.6550917,27.046212 71.5775447,26.2728907 C71.4999977,25.5388908 71.4612242,24.7852301 71.4612242,24.0119088 C71.4612242,23.199266 71.4999977,22.4062839 71.5775447,21.6329626 C71.6550917,20.9120698 71.8166479,20.2436056 72.0622133,19.6275699 C72.3207032,19.0115343 72.7278248,18.52657 73.2835781,18.1726772 C73.7876335,17.8449987 74.5178675,17.6811594 75.4742802,17.6811594 C76.4306929,17.6811594 77.1867759,17.871213 77.7425293,18.2513201 C78.2982826,18.6314272 78.6795552,19.1294986 78.8863472,19.7455342 C79.1448371,20.3615699 79.3193178,21.0300341 79.4097892,21.7509269 C79.4356382,22.4718196 79.4485627,23.2254803 79.4485627,24.0119088 C79.4485627,24.7328016 79.4356382,25.4668015 79.4097892,26.2139085 C79.3193178,26.9741228 79.1448371,27.6622477 78.8863472,28.2782833 C78.6795552,28.894319 78.2982826,29.3923904 77.7425293,29.7724975 C77.1867759,30.1657117 76.4306929,30.3623188 75.4742802,30.3623188 Z M93.3301682,34.7825764 L93.3301682,21.628988 C93.3301682,20.2532935 93.6565423,19.1556873 94.3092905,18.3361694 C94.4267926,18.1886468 94.5548705,18.0501355 94.6935243,17.9206354 C95.5569831,17.0568424 96.0243558,16.6249459 97.3877119,16.6249459 C98.751068,16.6249459 99.2260149,17.0568424 100.104622,17.9206354 C100.968081,18.7695354 101.39981,20.0056529 101.39981,21.628988 L101.39981,35.4347826 L106.794869,34.7825764 L106.794869,21.628988 C106.794869,20.0056529 107.241747,18.7695354 108.135502,17.9206354 C109.014109,17.0568424 110.135091,16.6249459 111.498447,16.6249459 C112.861803,16.6249459 113.329176,17.0568424 114.192635,17.9206354 C115.056094,18.7695354 115.487823,20.0056529 115.487823,21.628988 L115.487823,35.4347826 L120.882881,34.7825764 L120.882881,20.0205459 C120.822288,17.3695951 119.989126,15.3590424 118.383395,13.9888881 C116.762516,12.6336267 114.975005,11.955996 113.020861,11.955996 C109.915439,11.92621 107.438676,12.9389328 105.590571,14.9941644 C104.772557,14.1005854 103.871227,13.3633828 102.886581,12.7825565 C101.886787,12.2613021 100.568876,11.985782 98.9328488,11.955996 C96.3879175,11.955996 94.3353092,12.8719144 92.7750239,14.7037512 L92.6841335,14.7037512 L92.6841335,12.166656 C92.6841335,11.8909507 92.4606302,11.6674474 92.1849249,11.6674474 C92.1622052,11.6674474 92.139512,11.6689984 92.1170037,11.6720896 L88.3663974,12.1871784 C88.1192584,12.2211191 87.9351099,12.4322861 87.9351099,12.6817448 L87.9351099,35.4347826 L87.9351099,35.4347826 L93.3301682,34.7825764 Z M136.251429,34.6727748 C139.360821,33.8543342 141.73387,31.8809467 143.370539,28.7524635 L139.354945,26.7981614 C138.302717,28.6786735 136.860519,29.8693033 135.028352,30.3700507 C133.455862,30.7998261 132.058765,30.6612031 130.837061,29.9541819 C130.054914,29.5463696 129.250761,28.4705321 128.424602,26.7266692 C128.30646,26.477504 128.412773,26.1797776 128.661976,26.061717 C128.68841,26.0491938 128.715893,26.0390177 128.744109,26.0313061 L141.701438,22.4899537 C141.965529,22.4177754 142.122213,22.146363 142.052654,21.8815704 L141.180922,18.5631496 L141.180922,18.5631496 C140.359627,15.5544446 138.821186,13.4356909 136.5656,12.2068885 C134.346599,10.9996305 131.949273,10.7322039 129.373622,11.4046087 C128.30606,11.6963828 127.276257,12.1907533 126.284213,12.8877203 C125.277742,13.5886302 124.445184,14.5101246 123.78654,15.6522037 C123.138458,16.7756248 122.734109,18.1794058 122.573494,19.8635467 C122.405149,21.5182574 122.618625,23.4786737 123.213923,25.7447956 C123.832415,28.0992079 124.659536,29.9234529 125.695286,31.2175304 C126.688792,32.5862398 127.773722,33.5672163 128.950075,34.1604598 C129.548812,34.4384236 130.166221,34.6403123 130.802301,34.7661259 C131.421125,34.9439706 132.036979,35.0516545 132.649866,35.0891776 C133.867908,35.1347938 135.068415,34.9959433 136.251429,34.6727748 Z M136.08775,19.9551586 L127.766725,22.2293682 C127.500794,22.3019696 127.226316,22.145322 127.153641,21.8794118 C127.144516,21.8460264 127.138889,21.8117826 127.13685,21.7772329 C127.02758,19.9261202 127.157123,18.6557114 127.525478,17.9660064 C128.163,16.8612433 129.159807,16.1235457 130.515899,15.7529138 C131.871991,15.3822818 133.096867,15.5127739 134.190526,16.1443899 C134.866653,16.5500711 135.605221,17.5878276 136.406229,19.2576593 C136.525522,19.5062465 136.420663,19.8044559 136.172057,19.9237105 C136.144959,19.9367095 136.116742,19.9472349 136.08775,19.9551586 Z M149.776589,34.7866345 L149.776589,21.7145162 C149.776589,20.1012378 150.226077,18.8727782 151.125054,18.0291372 C152.008793,17.1706955 152.482188,16.7414746 153.853508,16.7414746 C155.224828,16.7414746 155.690604,17.1706955 156.559107,18.0291372 C157.442847,18.8727782 157.884716,20.1012378 157.884716,21.7145162 L157.884716,35.4347826 L163.315617,34.7866345 L163.315617,20.1160386 C163.239433,17.4815106 162.393785,15.4834135 160.778675,14.1217474 C159.148328,12.774882 157.350374,12.1014493 155.384816,12.1014493 C152.840255,12.1014493 150.783275,13.0116935 149.213875,14.8321819 L149.122453,14.8321819 L149.122453,12.889272 C149.122453,12.6135666 148.89895,12.3900633 148.623245,12.3900633 L144.844897,12.3900633 C144.569192,12.3900633 144.345688,12.6135666 144.345688,12.889272 L144.345688,35.4347826 L144.345688,35.4347826 L149.776589,34.7866345 Z M175.795834,35.942029 L175.153994,31.5139255 L173.423664,31.5139255 C172.29969,31.5438957 171.752491,30.9669685 171.78207,29.7831439 L171.78207,16.1841457 L174.357663,16.1841457 C174.633368,16.1841457 174.856872,15.9606424 174.856872,15.6849371 C174.856872,15.6095887 174.839815,15.5352178 174.806981,15.4673996 L173.560036,12.8918654 C173.476638,12.719609 173.302101,12.6101942 173.110717,12.6101942 L171.78207,12.6101942 L171.78207,12.6101942 L171.78207,5.49920866 C171.78207,5.22350333 171.558566,5 171.282861,5 L167.003043,5 C166.727338,5 166.503834,5.22350333 166.503834,5.49920866 L166.503834,12.6101942 L166.503834,12.6101942 L163.143764,12.6101942 C162.868059,12.6101942 162.644555,12.8336975 162.644555,13.1094028 C162.644555,13.1903624 162.664246,13.2701073 162.701929,13.3417624 L164.056393,15.9172966 C164.142691,16.081393 164.312824,16.1841457 164.498228,16.1841457 L166.503834,16.1841457 L166.503834,16.1841457 L166.503834,30.1877422 C166.503834,32.0309122 167.036243,33.4395136 168.101062,34.4135466 C169.136301,35.4325348 170.467324,35.942029 172.09413,35.942029 L175.795834,35.942029 Z M180.952528,40 C182.377753,40 183.656048,39.6808546 184.787412,39.0425638 C185.904084,38.374585 186.77832,37.1722232 187.410121,35.4354784 L196.960982,13.3057183 C197.070231,13.0525821 196.953588,12.7588103 196.700452,12.6495607 C196.637988,12.6226019 196.570672,12.6086957 196.502638,12.6086957 L192.054291,12.6086957 C191.853518,12.6086957 191.672282,12.7289745 191.594288,12.9139798 L185.748341,26.7809823 L185.748341,26.7809823 L180.93007,12.9437424 C180.860214,12.7431287 180.671054,12.6086957 180.458625,12.6086957 L176.010113,12.6086957 C175.734407,12.6086957 175.510904,12.832199 175.510904,13.1079043 C175.510904,13.1662579 175.521135,13.2241596 175.541132,13.2789798 L182.420405,32.1375773 L182.420405,32.1375773 C181.922406,33.9007548 181.501987,34.8961474 181.159149,35.123755 C180.644893,35.4503224 180.086557,35.6136061 179.484142,35.6136061 L178.139729,40 L180.952528,40 Z" id="Admenty-Light-Font" fill="#DFDEE3" fill-rule="nonzero"></path>
                    <g id="Grey-Icon">
                        <rect id="Gray-Gradient-BG" fill="url(#linearGradient-1)" x="0.623779379" y="0.112936898" width="38.3709677" height="43.4032258" rx="5.03225806"></rect>
                        <mask id="mask-3" fill="white">
                            <use xlink:href="#path-2"></use>
                        </mask>
                        <use id="Combined-Shape" fill="#E9E3E9" xlink:href="#path-2"></use>
                        <circle id="Top-Circle" fill="url(#linearGradient-4)" mask="url(#mask-3)" cx="30.3281534" cy="6.36057984" r="10.1347734"></circle>
                        <mask id="mask-6" fill="white">
                            <use xlink:href="#path-5"></use>
                        </mask>
                        <use id="Combined-Shape" fill="#E9E3E9" xlink:href="#path-5"></use>
                        <circle id="Bottom-Circle" fill="url(#linearGradient-7)" mask="url(#mask-6)" cx="8.87670887" cy="33.7806081" r="10.1347734"></circle>
                    </g>
                </g>
            </g>
        </g>
    </g>
</svg>