<svg width="253" height="48" viewBox="0 0 253 48" fill="none" xmlns="http://www.w3.org/2000/svg">
<g clip-path="url(#clip0_207_631)">
<path d="M58.4587 38.0976H52.879L63.0142 9.21765H69.4741L79.6946 38.0976H74.0989L66.3855 15.1601H66.1561L58.4587 38.0976ZM58.6454 26.7729H73.8695V30.9763H58.6454V26.7729Z" fill="#66A6ED"/>
<path d="M93.2704 38.0976H83.4873V9.21768H93.4678C96.04 9.14732 98.5867 9.74267 100.861 10.946C102.909 12.0826 104.567 13.8094 105.619 15.9016C106.716 18.3326 107.284 20.9692 107.284 23.6363C107.284 26.3034 106.716 28.94 105.619 31.3711C104.562 33.4793 102.887 35.2153 100.818 36.348C98.4936 37.5674 95.8947 38.1699 93.2704 38.0976ZM88.7149 33.5688H93.0304C94.7751 33.6303 96.5071 33.2505 98.066 32.4646C99.4124 31.7208 100.477 30.555 101.096 29.1467C102.454 25.5987 102.454 21.674 101.096 18.126C100.483 16.7338 99.4323 15.5799 98.1033 14.8401C96.585 14.0647 94.8943 13.6884 93.1904 13.7465H88.7309L88.7149 33.5688Z" fill="url(#paint0_linear_207_631)"/>
<path d="M112.234 9.21765H118.635L127.207 30.1442H127.543L136.116 9.21765H142.517V38.0976H137.497V18.2593H137.23L129.229 37.9963H125.495L117.494 18.2006H117.227V38.0816H112.234V9.21765Z" fill="url(#paint1_linear_207_631)"/>
<path d="M148.23 38.0976V9.21765H167.007V13.6025H153.457V21.4439H166.036V25.8287H153.457V33.7128H167.124V38.0976H148.23Z" fill="url(#paint2_linear_207_631)"/>
<path d="M196.079 9.21765V38.0976H191.427L177.846 18.4247H177.606V38.0976H172.352V9.21765H177.035L190.648 28.9013H190.899V9.21765H196.079Z" fill="url(#paint3_linear_207_631)"/>
<path d="M200.495 13.6025V9.21765H223.529V13.6025H214.605V38.0976H209.42V13.6025H200.495Z" fill="url(#paint4_linear_207_631)"/>
<path d="M225.983 9.21765H231.893L238.956 21.9933H239.239L246.301 9.21765H252.206L241.703 27.3223V38.0976H236.486V27.3223L225.983 9.21765Z" fill="url(#paint5_linear_207_631)"/>
<path d="M24.6766 44.1147C24.5022 42.8861 24.26 41.668 23.9511 40.4661C23.6524 39.3352 23.1083 38.3323 21.9294 37.8256C21.1126 37.5191 20.2124 37.5191 19.3956 37.8256C18.0141 38.263 16.6645 38.7911 15.2882 39.2498C14.3505 39.6106 13.3467 39.767 12.3437 39.7086C11.0688 39.5859 10.4233 38.7804 10.0393 37.7029C9.65519 36.6253 9.3778 35.5692 9.04708 34.5023C8.98985 34.2689 8.88682 34.0492 8.74396 33.856C8.60111 33.6628 8.42128 33.4999 8.21493 33.3768C8.14686 33.3441 8.08651 33.2974 8.03786 33.2396C7.9892 33.1819 7.95335 33.1145 7.93268 33.0419C7.91201 32.9693 7.90698 32.8931 7.91793 32.8184C7.92888 32.7437 7.95557 32.6722 7.99622 32.6086C8.05133 32.5384 8.08903 32.4561 8.10624 32.3685C8.12345 32.2809 8.11967 32.1905 8.09521 32.1046C8.07075 32.0188 8.02631 31.9399 7.96553 31.8745C7.90475 31.8092 7.82935 31.7591 7.7455 31.7285C7.68216 31.7034 7.62481 31.6652 7.57718 31.6165C7.52955 31.5678 7.49271 31.5095 7.46906 31.4456C7.44541 31.3817 7.43548 31.3136 7.43991 31.2456C7.44435 31.1776 7.46304 31.1113 7.49479 31.051C7.77434 30.3316 7.80626 29.5395 7.58548 28.7999C7.38266 28.389 7.09548 28.0255 6.74266 27.7331C6.53846 27.58 6.32061 27.4461 6.09187 27.333C4.87565 26.5062 4.72096 25.2899 5.3504 24.0577C5.57269 23.6718 5.82039 23.3012 6.09187 22.9482C6.8054 21.8811 7.12076 20.597 6.9827 19.3209C6.80667 17.2405 6.34258 15.1868 6.48128 13.0797C6.80133 8.19349 8.68435 4.14474 12.7758 1.26421C13.4565 0.786977 14.1694 0.357426 14.9095 -0.0213623C9.69559 2.22063 5.4146 6.19244 2.78876 11.224C0.162921 16.2555 -0.647042 22.0387 0.495528 27.598C1.6381 33.1573 4.66326 38.1524 9.06064 41.7405C13.458 45.3285 18.9584 47.29 24.6339 47.294H25.05C24.9487 46.2378 24.8366 45.1709 24.6766 44.1147Z" fill="url(#paint6_linear_207_631)"/>
<path d="M37.2175 1.45093C40.3428 3.57489 42.6248 6.72704 43.6667 10.3592C44.2121 12.3482 44.4212 14.4144 44.2855 16.4723C44.1663 18.5128 43.7326 20.5227 42.9999 22.4308C42.9597 22.5131 42.9152 22.5932 42.8665 22.6708C42.8292 22.1374 42.7812 21.7427 42.7705 21.3319C42.7562 17.5538 41.8089 13.8378 40.0127 10.5139C38.0835 7.00818 34.9286 4.33759 31.1524 3.01388C28.6795 2.07489 26.0255 1.71009 23.391 1.94701C19.6569 2.28308 16.4084 3.72334 13.9279 6.66788C12.6114 8.15173 11.5805 9.86619 10.8873 11.7248C10.4684 12.9385 10.5085 14.2636 10.9999 15.4499C11.4913 16.6361 12.4 17.6014 13.5545 18.1633C14.5162 18.5717 15.5033 18.9174 16.5097 19.1982C17.6352 19.5929 18.7501 20.025 19.881 20.3984C22.6618 21.3176 25.1021 23.0516 26.8849 25.3753C28.0704 26.9023 28.926 28.6588 29.3974 30.5336C29.926 32.5273 30.126 34.5939 29.9895 36.652C29.8722 38.0015 29.6744 39.3428 29.3974 40.6688C28.9343 42.9372 28.1644 45.132 27.109 47.1926C32.2775 46.6787 37.1518 44.5457 41.0364 41.0977C44.9209 37.6498 47.6174 33.0631 48.741 27.992C49.8646 22.921 49.358 17.6246 47.2935 12.8585C45.2289 8.09235 41.7119 4.09998 37.2442 1.45093H37.2175Z" fill="url(#paint7_linear_207_631)"/>
</g>
<defs>
<linearGradient id="paint0_linear_207_631" x1="8136.72" y1="9693.59" x2="8136.72" y2="8104.28" gradientUnits="userSpaceOnUse">
<stop stop-color="#016BE1"/>
<stop offset="0.98" stop-color="#66A6ED"/>
</linearGradient>
<linearGradient id="paint1_linear_207_631" x1="12177.2" y1="9689.78" x2="12177.2" y2="8101.09" gradientUnits="userSpaceOnUse">
<stop stop-color="#016BE1"/>
<stop offset="0.98" stop-color="#66A6ED"/>
</linearGradient>
<linearGradient id="paint2_linear_207_631" x1="8748.64" y1="9689.78" x2="8748.64" y2="8101.09" gradientUnits="userSpaceOnUse">
<stop stop-color="#016BE1"/>
<stop offset="0.98" stop-color="#66A6ED"/>
</linearGradient>
<linearGradient id="paint3_linear_207_631" x1="12153.1" y1="9689.78" x2="12153.1" y2="8101.09" gradientUnits="userSpaceOnUse">
<stop stop-color="#016BE1"/>
<stop offset="0.98" stop-color="#66A6ED"/>
</linearGradient>
<linearGradient id="paint4_linear_207_631" x1="13031.3" y1="9689.78" x2="13031.3" y2="8101.09" gradientUnits="userSpaceOnUse">
<stop stop-color="#016BE1"/>
<stop offset="0.98" stop-color="#66A6ED"/>
</linearGradient>
<linearGradient id="paint5_linear_207_631" x1="16165.1" y1="9689.78" x2="16165.1" y2="8101.09" gradientUnits="userSpaceOnUse">
<stop stop-color="#016BE1"/>
<stop offset="0.98" stop-color="#66A6ED"/>
</linearGradient>
<linearGradient id="paint6_linear_207_631" x1="4588.12" y1="16505" x2="4588.12" y2="12347.9" gradientUnits="userSpaceOnUse">
<stop stop-color="#016BE1"/>
<stop offset="0.98" stop-color="#66A6ED"/>
</linearGradient>
<linearGradient id="paint7_linear_207_631" x1="8364.34" y1="15957.5" x2="8364.34" y2="11938.7" gradientUnits="userSpaceOnUse">
<stop stop-color="#016BE1"/>
<stop offset="0.98" stop-color="#66A6ED"/>
</linearGradient>
<clipPath id="clip0_207_631">
<rect width="252.212" height="47.31" fill="white"/>
</clipPath>
</defs>
</svg>
